<?xml version="1.0" encoding="utf-8"?>
<svg width="1431px" height="626px" viewBox="0 0 1431 626" version="1.1" xmlns:xlink="http://www.w3.org/1999/xlink" xmlns="http://www.w3.org/2000/svg">
  <defs>
    <path d="M0 0L1431 0L1431 626L0 626L0 0Z" id="path_1" />
    <clipPath id="mask_1">
      <use xlink:href="#path_1" />
    </clipPath>
  </defs>
  <g id="bg-blob">
    <path d="M0 0L1431 0L1431 626L0 626L0 0Z" id="Background" fill="none" fill-rule="evenodd" stroke="none" />
    <g clip-path="url(#mask_1)">
      <path d="M0 557.082L75 419.244L186.5 303.224C209.65 289.845 237.021 255.009 260.041 232.429C313.031 180.452 357.784 157.356 429.574 112.639C487.249 76.7141 564.876 68.8529 650.5 60.5796C889 38.3964 1173.25 256.489 1292.5 303.224L1431 419.244L1431 626L1311.75 626C1192.5 626 954 626 715.5 626C477 626 238.5 626 119.25 626L0 626L0 557.082Z" id="Shape" fill="#FFE5D2" fill-rule="evenodd" stroke="none" />
    </g>
  </g>
</svg>