<?xml version="1.0" encoding="utf-8"?>
<svg width="35px" height="35px" viewBox="0 0 35 35" version="1.1" xmlns:xlink="http://www.w3.org/1999/xlink" xmlns="http://www.w3.org/2000/svg">
  <defs>
    <path d="M13.8532 0L21.1468 0Q21.4869 0 21.8266 0.0166867Q22.1662 0.0333735 22.5047 0.0667068Q22.8431 0.10004 23.1795 0.14994Q23.5159 0.199839 23.8494 0.266185Q24.183 0.33253 24.5129 0.415162Q24.8428 0.497794 25.1682 0.596513Q25.4936 0.695232 25.8138 0.8098Q26.134 0.924368 26.4482 1.05451Q26.7624 1.18465 27.0698 1.33005Q27.3772 1.47545 27.6772 1.63576Q27.9771 1.79608 28.2688 1.97091Q28.5605 2.14574 28.8432 2.33468Q29.126 2.52362 29.3992 2.7262Q29.6723 2.92878 29.9352 3.14452Q30.1981 3.36027 30.4501 3.58865Q30.702 3.81703 30.9425 4.0575Q31.183 4.29797 31.4114 4.54995Q31.6397 4.80193 31.8555 5.06481Q32.0712 5.32769 32.2738 5.60084Q32.4764 5.874 32.6653 6.15676Q32.8543 6.43952 33.0291 6.73121Q33.2039 7.02291 33.3642 7.32283Q33.5245 7.62275 33.6699 7.93017Q33.8153 8.2376 33.9455 8.55179Q34.0756 8.86598 34.1902 9.18618Q34.3048 9.50637 34.4035 9.83181Q34.5022 10.1572 34.5848 10.4871Q34.6675 10.817 34.7338 11.1505Q34.8002 11.4841 34.8501 11.8205Q34.9 12.1569 34.9333 12.4953Q34.9666 12.8338 34.9833 13.1734Q35 13.5131 35 13.8532L35 21.1468Q35 21.4869 34.9833 21.8266Q34.9666 22.1662 34.9333 22.5047Q34.9 22.8431 34.8501 23.1795Q34.8002 23.5159 34.7338 23.8494Q34.6675 24.183 34.5848 24.5129Q34.5022 24.8428 34.4035 25.1682Q34.3048 25.4936 34.1902 25.8138Q34.0756 26.134 33.9455 26.4482Q33.8153 26.7624 33.6699 27.0698Q33.5245 27.3772 33.3642 27.6772Q33.2039 27.9771 33.0291 28.2688Q32.8543 28.5605 32.6653 28.8432Q32.4764 29.126 32.2738 29.3992Q32.0712 29.6723 31.8555 29.9352Q31.6397 30.1981 31.4114 30.4501Q31.183 30.702 30.9425 30.9425Q30.702 31.183 30.4501 31.4114Q30.1981 31.6397 29.9352 31.8555Q29.6723 32.0712 29.3992 32.2738Q29.126 32.4764 28.8432 32.6653Q28.5605 32.8543 28.2688 33.0291Q27.9771 33.2039 27.6772 33.3642Q27.3772 33.5245 27.0698 33.6699Q26.7624 33.8153 26.4482 33.9455Q26.134 34.0756 25.8138 34.1902Q25.4936 34.3048 25.1682 34.4035Q24.8428 34.5022 24.5129 34.5848Q24.183 34.6675 23.8495 34.7338Q23.5159 34.8002 23.1795 34.8501Q22.8431 34.9 22.5047 34.9333Q22.1662 34.9666 21.8266 34.9833Q21.4869 35 21.1468 35L13.8532 35Q13.5131 35 13.1734 34.9833Q12.8338 34.9666 12.4953 34.9333Q12.1569 34.9 11.8205 34.8501Q11.4841 34.8002 11.1505 34.7338Q10.817 34.6675 10.4871 34.5848Q10.1572 34.5022 9.83181 34.4035Q9.50637 34.3048 9.18618 34.1902Q8.86598 34.0756 8.55179 33.9455Q8.2376 33.8153 7.93017 33.6699Q7.62275 33.5245 7.32283 33.3642Q7.02291 33.2039 6.73121 33.0291Q6.43952 32.8543 6.15676 32.6653Q5.874 32.4764 5.60084 32.2738Q5.32769 32.0712 5.06481 31.8555Q4.80193 31.6397 4.54995 31.4114Q4.29797 31.183 4.0575 30.9425Q3.81703 30.702 3.58865 30.4501Q3.36027 30.1981 3.14452 29.9352Q2.92878 29.6723 2.7262 29.3992Q2.52362 29.126 2.33468 28.8432Q2.14574 28.5605 1.97091 28.2688Q1.79608 27.9771 1.63576 27.6772Q1.47545 27.3772 1.33005 27.0698Q1.18465 26.7624 1.05451 26.4482Q0.924368 26.134 0.8098 25.8138Q0.695232 25.4936 0.596513 25.1682Q0.497794 24.8428 0.415162 24.5129Q0.33253 24.183 0.266185 23.8495Q0.199839 23.5159 0.14994 23.1795Q0.10004 22.8431 0.0667068 22.5047Q0.0333735 22.1662 0.0166867 21.8266Q0 21.4869 0 21.1468L0 13.8532Q0 13.5131 0.0166867 13.1734Q0.0333735 12.8338 0.0667068 12.4953Q0.10004 12.1569 0.14994 11.8205Q0.199839 11.4841 0.266185 11.1505Q0.33253 10.817 0.415162 10.4871Q0.497794 10.1572 0.596513 9.83181Q0.695232 9.50637 0.8098 9.18618Q0.924368 8.86598 1.05451 8.55179Q1.18465 8.2376 1.33005 7.93017Q1.47545 7.62275 1.63576 7.32283Q1.79608 7.02291 1.97091 6.73121Q2.14574 6.43952 2.33468 6.15676Q2.52362 5.874 2.7262 5.60084Q2.92878 5.32769 3.14452 5.06481Q3.36027 4.80193 3.58865 4.54995Q3.81703 4.29797 4.0575 4.0575Q4.29797 3.81703 4.54995 3.58865Q4.80193 3.36027 5.06481 3.14452Q5.32769 2.92878 5.60084 2.7262Q5.874 2.52362 6.15676 2.33468Q6.43952 2.14574 6.73121 1.97091Q7.02291 1.79608 7.32283 1.63576Q7.62275 1.47545 7.93017 1.33005Q8.2376 1.18465 8.55179 1.05451Q8.86598 0.924368 9.18618 0.8098Q9.50637 0.695232 9.83181 0.596513Q10.1572 0.497794 10.4871 0.415162Q10.817 0.33253 11.1505 0.266185Q11.4841 0.199839 11.8205 0.14994Q12.1569 0.10004 12.4953 0.0667068Q12.8338 0.0333735 13.1734 0.0166867Q13.5131 0 13.8532 0L13.8532 0Z" id="path_1" />
    <clipPath id="clip_1">
      <use xlink:href="#path_1" />
    </clipPath>
  </defs>
  <g id="Group-13">
    <g id="Rectangle">
      <use stroke="none" fill="#FF9900" xlink:href="#path_1" fill-rule="evenodd" />
      <g clip-path="url(#clip_1)">
        <use xlink:href="#path_1" fill="none" stroke="#FFFFFF" stroke-width="5.8333335" />
      </g>
      <use xlink:href="#path_1" fill="none" stroke="#FF9900" stroke-width="0.7291667" />
    </g>
    <g id="tick" transform="translate(10 12)">
      <path d="M15.7657 0.239312C15.4533 -0.0797705 14.9468 -0.0797705 14.6343 0.239312L5.04982 10.0277L1.3657 6.26526C1.0533 5.94618 0.546796 5.94621 0.234328 6.26526C-0.0781093 6.58431 -0.0781093 7.10159 0.234328 7.42067L4.48414 11.7608C4.79645 12.0798 5.30332 12.0796 5.61551 11.7608L15.7657 1.39475C16.0781 1.0757 16.0781 0.558394 15.7657 0.239312Z" id="Path" fill="#FFFFFF" stroke="none" />
    </g>
  </g>
</svg>