<?xml version="1.0" encoding="utf-8"?>
<svg width="520px" height="574px" viewBox="0 0 520 574" version="1.1" xmlns:xlink="http://www.w3.org/1999/xlink" xmlns="http://www.w3.org/2000/svg">
  <defs>
    <path d="M0.00116978 0.991382L519.785 0.991382L519.785 512L0.00116978 512L0.00116978 0.991382Z" id="path_1" />
    <path d="M1.75 3.8195L365.438 3.8195L365.438 495L1.75 495L1.75 3.8195Z" id="path_2" />
    <path d="M0 573.31L519.785 573.31L519.785 0L0 0L0 573.31Z" id="path_3" />
    <clipPath id="mask_1">
      <use xlink:href="#path_1" />
    </clipPath>
    <clipPath id="mask_2">
      <use xlink:href="#path_2" />
    </clipPath>
    <clipPath id="mask_3">
      <use xlink:href="#path_3" />
    </clipPath>
  </defs>
  <g id="Image">
    <g id="Group-3" transform="translate(0 61.31)">
      <path d="M0.00116978 0.991382L519.785 0.991382L519.785 512L0.00116978 512L0.00116978 0.991382Z" id="Clip-2" fill="none" fill-rule="evenodd" stroke="none" />
      <g clip-path="url(#mask_1)">
        <path d="M456.451 488.87C443.001 496.97 427.351 502.82 410.101 506.62C398.651 509.12 386.451 510.77 373.751 511.47C327.051 514.32 273.351 505.57 221.601 488.07C210.001 484.17 198.501 479.82 187.201 475.02C103.051 439.62 29.901 381.82 9.401 314.82C-28.049 192.52 52.351 104.57 145.451 23.87C183.201 -8.88 232.401 -4.18 283.301 23.47C295.201 29.92 307.151 37.62 319.101 46.37C363.951 79.32 408.351 127.27 445.851 180.57C519.451 285.22 562.051 425.42 456.451 488.87" id="Fill-1" fill="#FDE6D6" fill-rule="evenodd" stroke="none" />
      </g>
    </g>
    <path d="M417.217 155.934C408.533 138.424 405.352 116.264 422.767 109.13C442.217 101.164 473.207 114.044 482.227 143.27C487.992 161.945 486.012 188.014 470.082 198.034C456.452 206.615 427.872 177.41 417.217 155.934" id="Fill-4" fill="#E8E5EA" fill-rule="evenodd" stroke="none" />
    <path d="M141.485 66.8425C141.47 66.8425 141.455 66.8425 141.44 66.8425C138.095 66.6125 134.74 66.4875 131.48 66.4675C131.13 66.4675 130.855 66.1875 130.855 65.8425C130.86 65.4975 131.135 65.2175 131.48 65.2175L131.485 65.2175C134.775 65.2375 138.155 65.3625 141.53 65.5925C141.875 65.6175 142.13 65.9175 142.11 66.2625C142.085 66.5925 141.81 66.8425 141.485 66.8425L141.485 66.8425ZM111.515 67.8025C111.21 67.8025 110.94 67.5775 110.895 67.2675C110.845 66.9275 111.08 66.6075 111.425 66.5575C114.655 66.0875 118.025 65.7375 121.43 65.5125C121.82 65.4475 122.075 65.7525 122.095 66.0975C122.12 66.4375 121.86 66.7375 121.515 66.7575C118.14 66.9825 114.805 67.3325 111.605 67.7925C111.575 67.7975 111.545 67.8025 111.515 67.8025L111.515 67.8025ZM161.355 69.3175C161.315 69.3175 161.28 69.3125 161.245 69.3075C157.96 68.7175 154.64 68.2175 151.375 67.8075C151.03 67.7625 150.785 67.4525 150.83 67.1075C150.875 66.7675 151.16 66.5375 151.53 66.5675C154.82 66.9775 158.16 67.4875 161.465 68.0775C161.8 68.1375 162.03 68.4625 161.97 68.8025C161.915 69.1025 161.65 69.3175 161.355 69.3175L161.355 69.3175ZM92.025 72.3175C91.76 72.3175 91.515 72.1475 91.43 71.8775C91.325 71.5475 91.51 71.1975 91.84 71.0975C95.005 70.0975 98.265 69.2075 101.535 68.4425C101.865 68.3625 102.21 68.5725 102.285 68.9075C102.365 69.2425 102.155 69.5775 101.82 69.6575C98.58 70.4175 95.345 71.3025 92.215 72.2875C92.15 72.3075 92.09 72.3175 92.025 72.3175L92.025 72.3175ZM180.895 73.6975C180.84 73.6975 180.785 73.6925 180.73 73.6775C177.48 72.7975 174.22 71.9925 171.035 71.2775C170.695 71.2025 170.485 70.8675 170.56 70.5275C170.635 70.1925 170.95 69.9775 171.305 70.0575C174.51 70.7775 177.79 71.5875 181.06 72.4675C181.39 72.5625 181.59 72.9025 181.495 73.2375C181.42 73.5125 181.17 73.6975 180.895 73.6975L180.895 73.6975ZM200.03 79.6475C199.96 79.6475 199.89 79.6375 199.82 79.6125C196.69 78.5075 193.495 77.4525 190.335 76.4675C190.005 76.3625 189.82 76.0125 189.925 75.6875C190.025 75.3575 190.38 75.1675 190.705 75.2775C193.88 76.2625 197.09 77.3275 200.235 78.4325C200.56 78.5475 200.735 78.9075 200.62 79.2325C200.53 79.4875 200.29 79.6475 200.03 79.6475L200.03 79.6475ZM73.51 79.8425C73.285 79.8425 73.065 79.7175 72.955 79.4975C72.8 79.1925 72.92 78.8175 73.23 78.6575C76.175 77.1575 79.255 75.7525 82.38 74.4875C82.69 74.3475 83.06 74.5125 83.19 74.8325C83.32 75.1525 83.165 75.5175 82.845 75.6475C79.755 76.8975 76.71 78.2875 73.795 79.7725C73.705 79.8175 73.605 79.8425 73.51 79.8425L73.51 79.8425ZM218.71 86.8925C218.63 86.8925 218.55 86.8775 218.465 86.8425C215.405 85.5425 212.29 84.2725 209.2 83.0775C208.88 82.9525 208.72 82.5875 208.845 82.2675C208.975 81.9475 209.335 81.7975 209.655 81.9125C212.755 83.1125 215.885 84.3875 218.955 85.6925C219.275 85.8275 219.42 86.1925 219.29 86.5125C219.185 86.7475 218.955 86.8925 218.71 86.8925L218.71 86.8925ZM56.61 90.4975C56.42 90.4975 56.24 90.4175 56.115 90.2575C55.905 89.9825 55.955 89.5875 56.23 89.3775C58.855 87.3575 61.63 85.4175 64.475 83.6225C64.77 83.4425 65.155 83.5275 65.34 83.8175C65.525 84.1125 65.435 84.4975 65.145 84.6775C62.33 86.4575 59.59 88.3725 56.99 90.3725C56.88 90.4575 56.745 90.4975 56.61 90.4975L56.61 90.4975ZM236.92 95.2525C236.83 95.2525 236.735 95.2325 236.645 95.1875C233.635 93.7025 230.6 92.2575 227.615 90.8875C227.305 90.7425 227.165 90.3675 227.31 90.0575C227.455 89.7425 227.825 89.6025 228.14 89.7475C231.13 91.1225 234.18 92.5775 237.2 94.0625C237.51 94.2175 237.635 94.5925 237.485 94.9025C237.375 95.1225 237.15 95.2525 236.92 95.2525L236.92 95.2525ZM42.005 104.132C41.855 104.132 41.71 104.083 41.59 103.973C41.33 103.747 41.31 103.353 41.54 103.092C43.755 100.598 46.115 98.1725 48.56 95.8925C48.81 95.6525 49.205 95.6675 49.44 95.9175C49.68 96.1725 49.665 96.5675 49.41 96.8025C47 99.0625 44.665 101.458 42.47 103.923C42.35 104.063 42.18 104.132 42.005 104.132L42.005 104.132ZM254.655 104.582C254.55 104.582 254.45 104.557 254.35 104.503C251.445 102.878 248.485 101.272 245.56 99.7325C245.255 99.5725 245.135 99.1925 245.295 98.8875C245.46 98.5825 245.84 98.4625 246.14 98.6225C249.08 100.173 252.045 101.783 254.96 103.412C255.26 103.582 255.37 103.962 255.2 104.262C255.085 104.467 254.875 104.582 254.655 104.582L254.655 104.582ZM271.905 114.792C271.795 114.792 271.68 114.762 271.575 114.697C268.725 112.917 265.85 111.173 263.03 109.503C262.73 109.327 262.63 108.942 262.81 108.647C262.98 108.342 263.365 108.247 263.665 108.427C266.49 110.097 269.38 111.852 272.24 113.637C272.53 113.822 272.62 114.207 272.435 114.503C272.32 114.688 272.115 114.792 271.905 114.792L271.905 114.792ZM30.12 120.212C30.005 120.212 29.895 120.182 29.79 120.118C29.5 119.938 29.405 119.552 29.585 119.257C31.345 116.393 33.24 113.583 35.205 110.912C35.415 110.637 35.805 110.583 36.08 110.783C36.36 110.988 36.415 111.378 36.21 111.652C34.265 114.298 32.395 117.072 30.65 119.912C30.535 120.107 30.33 120.212 30.12 120.212L30.12 120.212ZM288.655 125.802C288.53 125.802 288.405 125.762 288.3 125.692C285.53 123.777 282.735 121.897 280 120.097C279.71 119.908 279.63 119.522 279.82 119.232C280.01 118.952 280.395 118.867 280.685 119.052C283.43 120.857 286.23 122.742 289.005 124.658C289.295 124.857 289.365 125.247 289.17 125.527C289.045 125.702 288.85 125.802 288.655 125.802L288.655 125.802ZM304.86 137.527C304.73 137.527 304.6 137.487 304.485 137.402C301.805 135.378 299.105 133.372 296.455 131.452C296.175 131.247 296.115 130.857 296.315 130.582C296.52 130.298 296.91 130.237 297.19 130.443C299.845 132.362 302.555 134.372 305.24 136.408C305.515 136.612 305.565 137.008 305.36 137.283C305.235 137.443 305.05 137.527 304.86 137.527L304.86 137.527ZM21.015 138.022C20.935 138.022 20.855 138.008 20.775 137.978C20.455 137.842 20.305 137.473 20.44 137.158C21.75 134.038 23.175 130.967 24.67 128.038C24.825 127.728 25.2 127.603 25.51 127.762C25.82 127.917 25.94 128.298 25.785 128.603C24.3 131.512 22.89 134.552 21.59 137.643C21.49 137.883 21.26 138.022 21.015 138.022L21.015 138.022ZM320.565 149.987C320.425 149.987 320.285 149.943 320.165 149.848C317.645 147.753 315.03 145.628 312.39 143.533C312.12 143.318 312.075 142.927 312.29 142.658C312.51 142.387 312.9 142.348 313.165 142.552C315.815 144.652 318.44 146.783 320.965 148.883C321.23 149.102 321.27 149.497 321.05 149.762C320.925 149.913 320.745 149.987 320.565 149.987L320.565 149.987ZM14.48 156.938C14.42 156.938 14.365 156.932 14.31 156.917C13.98 156.822 13.78 156.478 13.875 156.143C14.785 152.887 15.785 149.658 16.855 146.548C16.97 146.223 17.33 146.038 17.65 146.158C17.975 146.272 18.15 146.628 18.04 146.952C16.975 150.042 15.98 153.247 15.08 156.482C15.005 156.758 14.75 156.938 14.48 156.938L14.48 156.938ZM335.735 163.167C335.58 163.167 335.435 163.112 335.315 163.003C332.85 160.762 330.325 158.517 327.81 156.332C327.55 156.112 327.525 155.712 327.75 155.452C327.975 155.188 328.37 155.172 328.63 155.392C331.155 157.582 333.68 159.832 336.155 162.077C336.41 162.313 336.43 162.707 336.195 162.962C336.07 163.098 335.905 163.167 335.735 163.167L335.735 163.167ZM10.17 176.492C10.135 176.492 10.1 176.487 10.065 176.482C9.725 176.427 9.495 176.102 9.555 175.762C10.11 172.438 10.75 169.122 11.455 165.902C11.53 165.568 11.86 165.357 12.2 165.422C12.535 165.497 12.75 165.832 12.675 166.167C11.975 169.367 11.34 172.667 10.785 175.967C10.735 176.272 10.47 176.492 10.17 176.492L10.17 176.492ZM350.25 176.987C350.09 176.987 349.93 176.927 349.81 176.802C347.445 174.447 345.03 172.098 342.64 169.822C342.39 169.582 342.38 169.188 342.62 168.938C342.855 168.693 343.255 168.677 343.5 168.917C345.9 171.202 348.32 173.557 350.69 175.917C350.935 176.163 350.935 176.557 350.69 176.802C350.57 176.927 350.41 176.987 350.25 176.987L350.25 176.987ZM364.09 191.478C363.92 191.478 363.755 191.408 363.63 191.272C361.385 188.807 359.09 186.342 356.805 183.952C356.57 183.708 356.58 183.307 356.825 183.073C357.08 182.837 357.47 182.837 357.71 183.092C360.005 185.488 362.305 187.958 364.555 190.432C364.79 190.688 364.77 191.083 364.51 191.313C364.395 191.423 364.245 191.478 364.09 191.478L364.09 191.478ZM7.755 196.367C7.74 196.367 7.725 196.367 7.705 196.367C7.36 196.337 7.105 196.037 7.13 195.697C7.395 192.327 7.73 188.962 8.125 185.702C8.165 185.362 8.445 185.132 8.82 185.158C9.165 185.197 9.405 185.507 9.365 185.852C8.975 189.098 8.64 192.443 8.375 195.792C8.355 196.117 8.08 196.367 7.755 196.367L7.755 196.367ZM377.19 206.642C377.01 206.642 376.83 206.563 376.705 206.412C374.625 203.872 372.46 201.297 370.265 198.757C370.04 198.497 370.07 198.102 370.335 197.877C370.595 197.647 370.99 197.682 371.215 197.942C373.415 200.487 375.59 203.072 377.675 205.622C377.895 205.887 377.855 206.282 377.585 206.502C377.47 206.597 377.33 206.642 377.19 206.642L377.19 206.642ZM6.945 216.382L6.945 216.382C6.6 216.378 6.32 216.098 6.32 215.753C6.335 212.397 6.41 209.022 6.54 205.717C6.555 205.378 6.82 205.092 7.19 205.117C7.535 205.132 7.805 205.423 7.79 205.768C7.66 209.057 7.585 212.417 7.57 215.757C7.57 216.102 7.29 216.382 6.945 216.382L6.945 216.382ZM389.445 222.498C389.25 222.498 389.06 222.413 388.94 222.243C386.975 219.548 384.955 216.853 382.935 214.243C382.725 213.967 382.775 213.577 383.05 213.363C383.32 213.153 383.71 213.198 383.925 213.478C385.955 216.098 387.98 218.803 389.95 221.508C390.15 221.788 390.09 222.178 389.815 222.378C389.7 222.463 389.57 222.498 389.445 222.498L389.445 222.498ZM7.51 236.412C7.18 236.412 6.905 236.152 6.885 235.822C6.685 232.432 6.535 229.052 6.445 225.792C6.435 225.447 6.705 225.157 7.05 225.147L7.07 225.147C7.405 225.147 7.685 225.417 7.695 225.757C7.785 229.007 7.935 232.367 8.135 235.747C8.155 236.092 7.89 236.387 7.545 236.412L7.51 236.412ZM400.72 239.057C400.515 239.057 400.31 238.957 400.19 238.767C398.43 235.992 396.58 233.182 394.695 230.417C394.505 230.132 394.575 229.742 394.86 229.548C395.14 229.352 395.535 229.427 395.73 229.712C397.62 232.487 399.48 235.313 401.245 238.097C401.43 238.392 401.345 238.777 401.055 238.962C400.95 239.027 400.835 239.057 400.72 239.057L400.72 239.057ZM410.84 256.347C410.62 256.347 410.405 256.227 410.29 256.018C408.73 253.117 407.085 250.188 405.395 247.302C405.225 247.007 405.325 246.627 405.62 246.447C405.91 246.268 406.3 246.372 406.475 246.673C408.17 249.567 409.825 252.512 411.39 255.427C411.555 255.727 411.44 256.112 411.135 256.272C411.045 256.323 410.94 256.347 410.84 256.347L410.84 256.347ZM9.275 256.372C8.96 256.372 8.69 256.138 8.655 255.818C8.26 252.452 7.92 249.088 7.63 245.838C7.6 245.493 7.855 245.188 8.195 245.158C8.6 245.122 8.845 245.383 8.875 245.723C9.16 248.967 9.505 252.318 9.895 255.678C9.935 256.018 9.69 256.328 9.345 256.367C9.32 256.372 9.3 256.372 9.275 256.372L9.275 256.372ZM419.585 274.362C419.345 274.362 419.115 274.223 419.01 273.987C417.69 270.943 416.285 267.888 414.84 264.913C414.69 264.603 414.82 264.228 415.13 264.078C415.435 263.922 415.81 264.052 415.965 264.362C417.42 267.362 418.83 270.427 420.16 273.487C420.295 273.807 420.15 274.172 419.835 274.313C419.755 274.342 419.67 274.362 419.585 274.362L419.585 274.362ZM12.09 276.212C11.79 276.212 11.525 275.992 11.475 275.688C10.91 272.342 10.395 269.008 9.94 265.772C9.89 265.432 10.13 265.112 10.47 265.068C10.79 265.013 11.125 265.253 11.175 265.598C11.63 268.823 12.145 272.147 12.705 275.482C12.765 275.823 12.535 276.143 12.195 276.203C12.16 276.208 12.125 276.212 12.09 276.212L12.09 276.212ZM426.645 293.092C426.38 293.092 426.135 292.927 426.05 292.662C425.055 289.552 423.95 286.388 422.76 283.242C422.64 282.917 422.8 282.557 423.125 282.438C423.445 282.297 423.805 282.473 423.93 282.797C425.13 285.962 426.24 289.152 427.24 292.277C427.345 292.607 427.165 292.962 426.835 293.068C426.77 293.087 426.705 293.092 426.645 293.092L426.645 293.092ZM15.865 295.888C15.575 295.888 15.32 295.688 15.255 295.393C14.555 292.152 13.88 288.842 13.255 285.563C13.185 285.223 13.41 284.897 13.75 284.833C14.08 284.742 14.415 284.987 14.48 285.328C15.105 288.598 15.775 291.897 16.475 295.133C16.55 295.467 16.335 295.802 15.995 295.872C15.955 295.883 15.91 295.888 15.865 295.888L15.865 295.888ZM431.645 312.467C431.355 312.467 431.09 312.258 431.035 311.958C430.415 308.773 429.675 305.503 428.83 302.237C428.745 301.903 428.945 301.563 429.28 301.478C429.605 301.393 429.95 301.592 430.04 301.927C430.89 305.213 431.64 308.508 432.26 311.723C432.325 312.057 432.105 312.388 431.765 312.453C431.725 312.463 431.685 312.467 431.645 312.467L431.645 312.467ZM20.52 315.372C20.24 315.372 19.99 315.182 19.915 314.902C19.07 311.672 18.255 308.427 17.48 305.177C17.4 304.837 17.605 304.503 17.94 304.422C18.27 304.342 18.615 304.547 18.695 304.883C19.475 308.128 20.28 311.362 21.125 314.587C21.21 314.922 21.015 315.263 20.68 315.352C20.625 315.362 20.57 315.372 20.52 315.372L20.52 315.372ZM434.12 332.307C433.79 332.307 433.515 332.048 433.495 331.712C433.325 328.448 433.03 325.108 432.61 321.793C432.565 321.453 432.81 321.138 433.15 321.098C433.525 321.068 433.805 321.298 433.85 321.638C434.27 324.983 434.575 328.353 434.745 331.647C434.765 331.992 434.5 332.288 434.155 332.307L434.12 332.307ZM26.145 335.107C25.88 335.107 25.635 334.938 25.55 334.668L25.4 334.182C24.425 331.008 23.465 327.772 22.56 324.573C22.465 324.242 22.655 323.897 22.99 323.802C23.335 323.712 23.67 323.902 23.76 324.232C24.67 327.422 25.625 330.652 26.6 333.823L26.74 334.297C26.845 334.628 26.66 334.973 26.33 335.077C26.27 335.098 26.205 335.107 26.145 335.107L26.145 335.107ZM433.795 352.307C433.78 352.307 433.77 352.307 433.755 352.307C433.41 352.283 433.15 351.983 433.175 351.638C433.405 348.367 433.565 345.018 433.64 341.677C433.645 341.333 433.89 341.083 434.28 341.068C434.62 341.073 434.895 341.358 434.89 341.708C434.815 345.068 434.655 348.438 434.42 351.728C434.4 352.057 434.12 352.307 433.795 352.307L433.795 352.307ZM32.34 354.147C32.085 354.147 31.84 353.987 31.75 353.727C30.67 350.572 29.61 347.402 28.575 344.222C28.47 343.897 28.65 343.542 28.98 343.438C29.31 343.332 29.66 343.512 29.765 343.837C30.8 347.007 31.855 350.172 32.935 353.322C33.045 353.647 32.87 354.002 32.545 354.117C32.475 354.137 32.41 354.147 32.34 354.147L32.34 354.147ZM431.34 372.158C431.305 372.158 431.27 372.152 431.23 372.147C430.89 372.083 430.665 371.758 430.725 371.423C431.3 368.203 431.8 364.888 432.215 361.563C432.255 361.217 432.585 360.973 432.91 361.018C433.255 361.063 433.495 361.372 433.455 361.717C433.04 365.068 432.535 368.402 431.955 371.638C431.9 371.943 431.64 372.158 431.34 372.158L431.34 372.158ZM39.115 372.967C38.865 372.967 38.625 372.812 38.535 372.562C37.355 369.447 36.2 366.317 35.065 363.177C34.945 362.852 35.115 362.492 35.44 362.372C35.77 362.262 36.12 362.427 36.24 362.752C37.37 365.887 38.525 369.012 39.7 372.117C39.82 372.442 39.66 372.802 39.34 372.922C39.265 372.952 39.19 372.967 39.115 372.967L39.115 372.967ZM46.515 391.587C46.27 391.587 46.04 391.443 45.94 391.202C44.655 388.128 43.4 385.033 42.16 381.913C42.03 381.592 42.19 381.228 42.51 381.103C42.82 380.978 43.19 381.128 43.32 381.448C44.555 384.563 45.815 387.652 47.09 390.723C47.225 391.043 47.075 391.408 46.755 391.538C46.675 391.573 46.595 391.587 46.515 391.587L46.515 391.587ZM426.695 391.603C426.64 391.603 426.58 391.598 426.515 391.577C426.185 391.478 426 391.128 426.1 390.798C427.05 387.638 427.925 384.397 428.69 381.177C428.775 380.842 429.095 380.638 429.445 380.712C429.78 380.797 429.99 381.133 429.91 381.467C429.135 384.712 428.255 387.973 427.295 391.158C427.215 391.427 426.965 391.603 426.695 391.603L426.695 391.603ZM54.535 409.952C54.3 409.952 54.075 409.818 53.97 409.587C52.585 406.563 51.215 403.508 49.87 400.432C49.735 400.117 49.88 399.747 50.195 399.607C50.51 399.477 50.88 399.612 51.02 399.932C52.36 403.003 53.72 406.047 55.105 409.068C55.25 409.383 55.11 409.753 54.8 409.897C54.715 409.938 54.625 409.952 54.535 409.952L54.535 409.952ZM419.785 410.368C419.7 410.368 419.615 410.353 419.53 410.313C419.215 410.178 419.075 409.808 419.21 409.493C420.54 406.473 421.79 403.363 422.94 400.248C423.06 399.928 423.415 399.758 423.745 399.878C424.065 399.998 424.23 400.358 424.11 400.683C422.955 403.823 421.69 406.953 420.355 409.993C420.25 410.228 420.025 410.368 419.785 410.368L419.785 410.368ZM63.22 428.008C62.99 428.008 62.77 427.883 62.66 427.668C61.165 424.698 59.685 421.698 58.225 418.668C58.075 418.358 58.205 417.983 58.52 417.832C58.84 417.688 59.205 417.813 59.355 418.122C60.81 421.142 62.28 424.138 63.775 427.103C63.93 427.413 63.81 427.788 63.5 427.943C63.41 427.987 63.315 428.008 63.22 428.008L63.22 428.008ZM410.645 428.167C410.535 428.167 410.425 428.142 410.325 428.082C410.025 427.902 409.93 427.522 410.105 427.228C411.8 424.362 413.425 421.422 414.93 418.482C415.09 418.172 415.46 418.052 415.77 418.212C416.08 418.372 416.2 418.747 416.045 419.052C414.525 422.012 412.89 424.978 411.18 427.862C411.065 428.057 410.855 428.167 410.645 428.167L410.645 428.167ZM399.485 444.767C399.355 444.767 399.22 444.727 399.105 444.642C398.835 444.438 398.78 444.042 398.985 443.767C400.99 441.117 402.94 438.392 404.78 435.658C404.975 435.372 405.36 435.292 405.65 435.487C405.935 435.682 406.01 436.072 405.815 436.357C403.965 439.112 402.005 441.857 399.985 444.522C399.86 444.682 399.675 444.767 399.485 444.767L399.485 444.767ZM72.605 445.712C72.385 445.712 72.175 445.598 72.06 445.393C70.465 442.533 68.855 439.568 67.27 436.578C67.11 436.272 67.22 435.893 67.525 435.733C67.835 435.582 68.21 435.688 68.37 435.992C69.955 438.973 71.56 441.932 73.15 444.783C73.32 445.082 73.21 445.467 72.91 445.633C72.815 445.688 72.71 445.712 72.605 445.712L72.605 445.712ZM386.595 460.057C386.445 460.057 386.29 460.003 386.17 459.888C385.92 459.658 385.905 459.258 386.14 459.008C388.42 456.563 390.65 454.048 392.765 451.543C392.99 451.288 393.385 451.247 393.645 451.467C393.91 451.693 393.945 452.087 393.72 452.353C391.59 454.872 389.35 457.397 387.055 459.863C386.93 459.992 386.765 460.057 386.595 460.057L386.595 460.057ZM82.755 462.988C82.55 462.988 82.345 462.883 82.225 462.693C80.49 459.888 78.745 456.997 77.04 454.103C76.87 453.803 76.965 453.418 77.265 453.243C77.56 453.068 77.945 453.173 78.12 453.467C79.82 456.358 81.555 459.238 83.29 462.033C83.47 462.328 83.38 462.713 83.085 462.893C82.985 462.958 82.87 462.988 82.755 462.988L82.755 462.988ZM372.29 474.052C372.115 474.052 371.945 473.982 371.82 473.842C371.59 473.587 371.615 473.192 371.87 472.962C374.38 470.712 376.83 468.422 379.165 466.142C379.41 465.902 379.81 465.912 380.045 466.152C380.29 466.402 380.285 466.797 380.035 467.037C377.69 469.327 375.225 471.632 372.705 473.892C372.585 473.997 372.435 474.052 372.29 474.052L372.29 474.052ZM93.755 479.738C93.555 479.738 93.36 479.643 93.24 479.467C91.35 476.753 89.46 473.953 87.625 471.147C87.43 470.863 87.515 470.473 87.805 470.283C88.09 470.098 88.475 470.178 88.67 470.467C90.5 473.263 92.385 476.048 94.265 478.753C94.465 479.038 94.395 479.428 94.11 479.622C94 479.698 93.88 479.738 93.755 479.738L93.755 479.738ZM356.86 486.817C356.67 486.817 356.485 486.732 356.365 486.572C356.155 486.297 356.205 485.908 356.48 485.697C359.135 483.658 361.77 481.567 364.3 479.477C364.565 479.253 364.955 479.292 365.175 479.557C365.395 479.827 365.36 480.217 365.095 480.438C362.55 482.542 359.91 484.642 357.24 486.688C357.125 486.777 356.99 486.817 356.86 486.817L356.86 486.817ZM105.69 495.823C105.51 495.823 105.325 495.742 105.2 495.587C103.18 493.033 101.125 490.353 99.09 487.617C98.885 487.342 98.945 486.948 99.22 486.742C99.5 486.543 99.89 486.598 100.1 486.872C102.12 489.598 104.165 492.267 106.18 494.807C106.395 495.077 106.35 495.473 106.08 495.688C105.965 495.777 105.83 495.823 105.69 495.823L105.69 495.823ZM340.575 498.473C340.375 498.473 340.18 498.372 340.055 498.193C339.865 497.908 339.94 497.518 340.23 497.328C343.01 495.463 345.775 493.548 348.45 491.638C348.725 491.433 349.12 491.503 349.32 491.783C349.52 492.063 349.46 492.458 349.18 492.658C346.495 494.573 343.72 496.493 340.925 498.368C340.82 498.438 340.695 498.473 340.575 498.473L340.575 498.473ZM323.64 509.163C323.425 509.163 323.22 509.052 323.1 508.857C322.925 508.563 323.02 508.177 323.32 507.997C326.23 506.262 329.1 504.507 331.845 502.772C332.14 502.598 332.525 502.677 332.71 502.967C332.89 503.262 332.805 503.647 332.515 503.832C329.755 505.568 326.88 507.332 323.96 509.072C323.86 509.132 323.75 509.163 323.64 509.163L323.64 509.163ZM118.7 511.052C118.535 511.052 118.365 510.982 118.245 510.852C116.02 508.447 113.775 505.917 111.575 503.342C111.355 503.082 111.38 502.682 111.645 502.462C111.91 502.242 112.305 502.267 112.525 502.533C114.715 505.098 116.95 507.607 119.16 510.003C119.395 510.257 119.38 510.652 119.125 510.887C119.005 510.997 118.855 511.052 118.7 511.052L118.7 511.052ZM306.205 519.032C305.98 519.032 305.765 518.912 305.655 518.708C305.49 518.402 305.605 518.022 305.905 517.857C308.855 516.267 311.775 514.657 314.665 513.022C314.965 512.852 315.345 512.958 315.52 513.257C315.685 513.557 315.58 513.938 315.28 514.112C312.385 515.747 309.455 517.362 306.5 518.958C306.405 519.007 306.305 519.032 306.205 519.032L306.205 519.032ZM132.94 525.133C132.79 525.133 132.64 525.078 132.525 524.973C130.07 522.772 127.61 520.453 125.22 518.078C124.97 517.833 124.97 517.438 125.215 517.193C125.455 516.948 125.85 516.948 126.095 517.188C128.475 519.552 130.92 521.853 133.36 524.042C133.615 524.272 133.635 524.667 133.405 524.927C133.28 525.063 133.11 525.133 132.94 525.133L132.94 525.133ZM288.405 528.218C288.175 528.218 287.95 528.093 287.845 527.872C287.69 527.563 287.82 527.182 288.125 527.032C291.125 525.542 294.105 524.042 297.06 522.517C297.36 522.362 297.735 522.482 297.9 522.787C298.055 523.093 297.94 523.473 297.63 523.632C294.67 525.157 291.69 526.662 288.68 528.152C288.59 528.198 288.495 528.218 288.405 528.218L288.405 528.218ZM270.32 536.853C270.085 536.853 269.86 536.718 269.755 536.488C269.61 536.177 269.745 535.802 270.06 535.662C273.095 534.258 276.12 532.838 279.12 531.407C279.425 531.268 279.81 531.393 279.955 531.703C280.105 532.013 279.97 532.388 279.66 532.537C276.65 533.973 273.625 535.388 270.58 536.792C270.5 536.833 270.41 536.853 270.32 536.853L270.32 536.853ZM148.575 537.628C148.455 537.628 148.33 537.588 148.22 537.512C145.545 535.632 142.84 533.602 140.185 531.472C139.915 531.257 139.87 530.862 140.085 530.593C140.31 530.328 140.7 530.282 140.965 530.497C143.6 532.607 146.28 534.628 148.935 536.487C149.22 536.688 149.29 537.078 149.09 537.362C148.97 537.532 148.775 537.628 148.575 537.628L148.575 537.628ZM252.08 545.028C251.84 545.028 251.61 544.888 251.505 544.653C251.37 544.338 251.515 543.968 251.83 543.828C254.89 542.493 257.94 541.148 260.97 539.787C261.285 539.648 261.655 539.787 261.795 540.103C261.935 540.417 261.795 540.787 261.485 540.927C258.445 542.287 255.395 543.638 252.33 544.973C252.25 545.008 252.165 545.028 252.08 545.028L252.08 545.028ZM165.755 547.872C165.66 547.872 165.565 547.853 165.475 547.807C162.54 546.363 159.57 544.747 156.645 542.993C156.35 542.818 156.255 542.432 156.43 542.138C156.605 541.843 156.99 541.743 157.29 541.922C160.185 543.652 163.125 545.258 166.03 546.688C166.34 546.843 166.465 547.213 166.315 547.523C166.205 547.747 165.98 547.872 165.755 547.872L165.755 547.872ZM233.615 552.782C233.36 552.782 233.12 552.622 233.03 552.367C232.91 552.042 233.08 551.682 233.405 551.568C234.855 551.042 236.34 550.463 237.82 549.838C239.425 549.157 241.035 548.478 242.64 547.792C242.955 547.662 243.325 547.802 243.46 548.117C243.595 548.438 243.45 548.807 243.135 548.938C241.525 549.628 239.915 550.313 238.305 550.992C236.805 551.622 235.3 552.213 233.83 552.742C233.76 552.768 233.685 552.782 233.615 552.782L233.615 552.782ZM184.43 554.938C184.38 554.938 184.325 554.927 184.275 554.917C181.1 554.078 177.88 553.037 174.7 551.828C174.375 551.708 174.21 551.343 174.335 551.022C174.46 550.698 174.82 550.537 175.14 550.662C178.285 551.852 181.465 552.882 184.59 553.708C184.925 553.797 185.125 554.137 185.035 554.468C184.96 554.753 184.71 554.938 184.43 554.938L184.43 554.938ZM214.16 557.318C213.84 557.318 213.57 557.078 213.535 556.758C213.5 556.412 213.75 556.107 214.09 556.068C217.355 555.723 220.65 555.162 223.88 554.402C224.23 554.318 224.555 554.537 224.63 554.867C224.715 555.203 224.505 555.542 224.17 555.617C220.885 556.392 217.54 556.958 214.225 557.313C214.2 557.318 214.18 557.318 214.16 557.318L214.16 557.318ZM204.16 557.747L204.15 557.747C200.835 557.682 197.465 557.402 194.125 556.922C193.785 556.872 193.55 556.557 193.6 556.218C193.645 555.872 193.93 555.628 194.305 555.688C197.59 556.162 200.91 556.432 204.175 556.497C204.515 556.508 204.795 556.792 204.785 557.138C204.78 557.478 204.5 557.747 204.16 557.747L204.16 557.747Z" id="Fill-6" fill="#D8D5DB" fill-rule="evenodd" stroke="none" />
    <g id="Group-10" transform="translate(45 78.31)">
      <path d="M1.75 3.8195L365.438 3.8195L365.438 495L1.75 495L1.75 3.8195Z" id="Clip-9" fill="none" fill-rule="evenodd" stroke="none" />
      <g clip-path="url(#mask_2)">
        <path d="M340.55 416.369C337.75 417.119 334.95 418.569 332.7 421.119C331.4 422.619 329.7 425.419 328.2 428.369C327.85 418.27 327.5 409.669 327.15 404.369C328.1 404.27 328.65 404.27 328.65 404.27C328.65 403.069 328.65 401.869 328.6 400.569C328.35 376.219 325.7 333.869 322.2 291.669C323.45 294.27 324.65 296.669 325.8 298.819C325.85 299.569 325.85 300.319 326 301.12C327.85 311.219 337.1 367.119 339.8 400.819C340.3 406.869 340.55 412.169 340.55 416.369M362.8 293.169L362.8 293.069C359.9 283.62 350.15 255.469 339.05 227.52L351.35 223.32C351.35 223.32 315.35 159.27 294.3 145.17C294.25 145.12 294.2 145.12 294.15 145.07C286.75 138.17 275.95 133.669 259.8 131.82C259.7 118.469 260.7 95.9695 261.85 78.7195C270.15 76.8195 274.15 67.0695 274.7 64.9195C275.85 60.5195 274.8 56.8695 272.65 54.5195C273.3 49.0695 274.4 38.4695 274.1 29.3695C273.85 21.0195 272.5 13.9695 268.6 13.1195C268.65 12.9695 268.75 12.8695 268.8 12.7695C270.1 8.6195 267.65 4.0195 267.55 3.8195L265.35 5.0195C265.95 6.0695 267.2 9.3695 266.4 11.9695C262.7 7.8695 251.2 6.2195 238.3 6.4695C220.25 6.7695 199.55 10.9195 193.95 17.4195C190.05 21.9195 191.2 24.3695 195.25 25.4695C194.65 29.6695 194.4 33.3195 194.3 36.6695C193.7 38.2195 193.15 39.8195 192.6 41.5195C191.15 42.5195 189.75 43.9695 188.7 46.2195L191 47.2695C191.05 47.1695 191.1 47.1195 191.15 47.0195C190.55 49.5695 190 52.1695 189.6 55.0195C185.1 86.0195 177.75 116.87 208.5 117.219C208.45 120.719 208.25 124.12 207.9 127.32C207.65 129.87 207.3 132.27 206.85 134.42C195.15 137.27 186 141.77 179.65 147.82C157.05 166.469 128.5 226.37 128.5 226.37L138.1 231.12C131 244.919 124 259.02 118.75 270.469C94.45 253.67 51.75 222.52 39.15 208.87C39.15 208.82 39.1 208.82 39.05 208.77C39.55 203.52 38.6 195.02 37.2 190.219C37.2 190.12 37.2 190.02 37.15 189.87C37.05 189.62 36.95 189.47 36.9 189.27C36.8 188.97 36.7 188.62 36.6 188.37C36.35 187.72 36.15 187.27 35.95 186.87C32.6 179.469 27.3 176.57 24.15 166.72C22.5 161.469 18.45 163.62 16.9 167.119L5 140.52L1.75 141.969L17.05 176.32C13.45 174.72 10.3 173.77 8.15 174.52C5.2 175.52 1.95 190.37 3.35 195.67C4.75 200.919 19.1 217.82 24.45 220.719C24.85 220.92 25.3 221.07 25.7 221.12C34.35 233.219 91.7 301.319 114.75 313.12C129.05 320.369 139.8 314.12 143.35 304.819C147.95 297.419 156.4 282.97 165.6 266.27C162.6 312.77 156.85 365.169 146 401.919C147 402.069 148.05 402.219 149.1 402.37C146.05 417.619 143.8 437.669 142.2 458.02C153.5 462.819 165 467.169 176.6 471.069C228.35 488.57 282.05 497.319 328.75 494.469C329.5 492.169 329.85 489.77 329.8 487.22C329.55 477.22 329.25 464.969 328.95 452.869C331.45 459.369 334.7 464.719 337.3 466.069C340.05 467.47 353.05 459.52 355.9 454.77C358.7 450.169 360.85 428.069 359.2 422.169C359.1 421.769 358.8 421.469 358.6 421.119C359.2 417.819 360.1 410.62 361.1 401.22C364.3 369.52 368.1 312.569 362.8 293.169" id="Fill-8" fill="#D1CDD3" fill-rule="evenodd" stroke="none" />
      </g>
    </g>
    <path d="M280.106 275.57L247.511 254.301C247.511 254.301 215.116 313.915 199.141 348.796C174.856 331.98 132.156 300.845 119.551 287.165C119.516 287.13 119.481 287.111 119.446 287.076C119.941 281.815 118.991 273.341 117.606 268.535C117.576 268.41 117.571 268.31 117.526 268.176C117.456 267.951 117.361 267.771 117.286 267.556C117.186 267.276 117.096 266.921 116.996 266.681C116.731 266.035 116.526 265.565 116.341 265.16C112.991 257.806 107.681 254.865 104.551 245.046C102.371 238.191 96.086 243.941 96.706 248.885C96.706 248.885 97.641 252.096 98.696 255.186C94.541 253.206 90.951 252.005 88.531 252.82C85.601 253.805 82.326 268.676 83.731 273.991C85.111 279.22 99.481 296.13 104.861 299.04C105.251 299.25 105.661 299.366 106.081 299.431C114.756 311.546 172.106 379.651 195.161 391.41C209.441 398.695 220.166 392.421 223.751 383.141C234.651 365.445 267.636 307.855 280.106 275.57" id="Fill-11" fill="#FFAD69" fill-rule="evenodd" stroke="none" />
    <path d="M284.542 238.945C289.482 263.795 269.622 334.51 269.622 334.51L208.872 304.695C208.872 304.695 271.512 173.39 284.542 238.945" id="Fill-13" fill="#EA3939" fill-rule="evenodd" stroke="none" />
    <path d="M410.201 565.529C410.201 566.329 410.201 567.129 410.101 567.929C398.651 570.429 386.451 572.079 373.751 572.779C327.051 575.629 273.351 566.879 221.601 549.379C223.401 522.679 226.201 494.829 230.501 476.029L373.601 478.879L384.801 479.129L406.101 479.529L407.351 479.579C408.351 490.979 409.551 537.129 410.201 565.529" id="Fill-15" fill="#232323" fill-rule="evenodd" stroke="none" />
    <path d="M328.468 209.297C367.737 210.592 381.013 223.847 387.783 246.772C395.467 272.802 409.008 430.021 409.008 482.557C409.008 482.557 291.488 490.882 226.383 480.211C246.793 411.262 249.003 287.276 249.413 250.342C249.717 222.627 278.682 207.652 328.468 209.297" id="Fill-17" fill="#FF4E4A" fill-rule="evenodd" stroke="none" />
    <path d="M293.873 145.007C290.003 142.097 269.823 144.737 275.638 103.652C277.753 88.662 291.833 98.667 301.798 100.667C311.763 102.667 305.428 145.747 305.428 145.747L293.873 145.007Z" id="Fill-19" fill="#232323" fill-rule="evenodd" stroke="none" />
    <path d="M344.117 135.165C342.442 146.055 339.092 204.975 340.487 218.655C341.882 232.34 275.702 236.25 284.357 221.171C293.017 206.09 286.872 156.105 286.872 156.105L344.117 135.165Z" id="Fill-21" fill="#FFAD69" fill-rule="evenodd" stroke="none" />
    <path d="M339.534 136.831L286.879 156.111C286.879 156.111 290.434 185.225 288.289 205.721C328.439 202.616 338.744 151.906 339.424 142.141C339.534 140.301 339.589 138.526 339.534 136.831" id="Fill-23" fill="#D88344" fill-rule="evenodd" stroke="none" />
    <path d="M269.974 133.313C265.094 166.948 256.809 200.482 297.579 194.962C338.354 189.443 344.689 137.167 344.569 127.307C343.934 74.6925 279.569 67.1725 269.974 133.313" id="Fill-25" fill="#FFAD69" fill-rule="evenodd" stroke="none" />
    <path d="M348.965 91.4105C349.016 91.2805 349.125 91.1905 349.17 91.0605C350.495 86.9355 348.055 82.3405 347.951 82.1455L345.75 83.3305C345.77 83.3705 347.77 87.1755 346.79 90.2705C337.86 80.4055 283.915 84.6105 274.32 95.7555C262.13 109.915 299.62 103.531 320.745 99.9555C323.705 112.326 337.115 132.811 340.98 135.721L352.535 136.465C352.535 136.465 358.84 93.5805 348.965 91.4105" id="Fill-27" fill="#232323" fill-rule="evenodd" stroke="none" />
    <path d="M438.988 499.414C441.578 485.023 450.108 396.629 443.203 371.499C443.193 371.458 443.198 371.419 443.188 371.374C438.367 355.643 414.432 287.839 397.103 255.734L359.758 266.694C359.758 266.694 391.013 348.263 406.168 377.114C406.213 377.889 406.213 378.648 406.363 379.449C408.592 391.349 421.053 466.854 420.913 494.664C418.153 495.434 415.342 496.884 413.108 499.434C410.263 502.684 405.303 512.018 405.652 516.159C406.648 527.974 413.213 542.049 417.708 544.374C420.458 545.794 433.418 537.809 436.263 533.104C439.063 528.474 441.223 506.388 439.573 500.499C439.463 500.094 439.193 499.769 438.988 499.414" id="Fill-29" fill="#FFAD69" fill-rule="evenodd" stroke="none" />
    <path d="M374.689 223.486C395.754 237.566 431.714 301.611 431.714 301.611L367.678 323.486C367.678 323.486 319.118 186.346 374.689 223.486" id="Fill-31" fill="#FF4E4A" fill-rule="evenodd" stroke="none" />
    <path d="M304.307 131.647C304.438 133.288 303.552 134.693 302.323 134.792C301.092 134.887 299.992 133.643 299.862 132.003C299.728 130.367 300.617 128.958 301.848 128.863C303.073 128.762 304.172 130.007 304.307 131.647" id="Fill-33" fill="#232323" fill-rule="evenodd" stroke="none" />
    <path d="M278.336 132.336C278.466 133.976 277.581 135.381 276.351 135.481C275.126 135.576 274.021 134.331 273.891 132.696C273.756 131.056 274.646 129.646 275.876 129.551C277.101 129.451 278.206 130.696 278.336 132.336" id="Fill-35" fill="#232323" fill-rule="evenodd" stroke="none" />
    <path d="M310.694 122.445C307.219 117.11 301.239 118.381 301.179 118.391L300.629 115.951C300.944 115.885 308.374 114.311 312.789 121.08L310.694 122.445Z" id="Fill-37" fill="#232323" fill-rule="evenodd" stroke="none" />
    <path d="M271.38 125.561L269.11 124.521C272.48 117.166 280.055 117.641 280.375 117.656L280.2 120.151C279.965 120.136 274.02 119.821 271.38 125.561" id="Fill-39" fill="#232323" fill-rule="evenodd" stroke="none" />
    <path d="M295.961 162.617C294.301 162.617 293.251 162.432 293.211 162.421L293.665 159.966C294.126 160.051 305.101 161.911 311.216 151.736L313.355 153.026C308.311 161.417 300.186 162.617 295.961 162.617" id="Fill-41" fill="#232323" fill-rule="evenodd" stroke="none" />
    <path d="M276.739 151.223L283.099 129.542L285.494 130.242L280.089 148.677L288.844 148.563L288.879 151.063L276.739 151.223Z" id="Fill-43" fill="#D88344" fill-rule="evenodd" stroke="none" />
    <path d="M114.762 284.682L111.492 286.142L82.1415 220.287L85.4065 218.827L114.762 284.682Z" id="Fill-45" fill="#232323" fill-rule="evenodd" stroke="none" />
    <path d="M334.229 139.445C330.544 147.745 325.935 155.775 337.5 157.265C349.065 158.76 354.444 145.775 355.099 143.23C358.595 129.66 341.47 123.125 334.229 139.445" id="Fill-47" fill="#FFAD69" fill-rule="evenodd" stroke="none" />
    <path d="M161.227 0.002L43.5715 0.002C39.4715 0.002 36.1465 3.322 36.1465 7.422L36.1465 49.317C36.1465 53.417 39.4715 56.742 43.5715 56.742L50.7365 56.742L58.8165 67.537C60.6115 69.937 64.3765 69.222 65.1715 66.332L67.7915 56.742L161.227 56.742C165.327 56.742 168.646 53.417 168.646 49.317L168.646 7.422C168.646 3.322 165.327 0.002 161.227 0.002" id="Fill-49" fill="#4D8DFF" fill-rule="evenodd" stroke="none" />
    <path d="M0 573.31L519.785 573.31L519.785 0L0 0L0 573.31Z" id="Clip-52" fill="none" fill-rule="evenodd" stroke="none" />
    <g clip-path="url(#mask_3)">
      <path d="M47.705 13.495L151.73 13.495L151.73 10.995L47.705 10.995L47.705 13.495Z" id="Fill-51" fill="#FFFFFF" fill-rule="evenodd" stroke="none" />
      <path d="M47.705 25.325L116.395 25.325L116.395 22.825L47.705 22.825L47.705 25.325Z" id="Fill-53" fill="#FFFFFF" fill-rule="evenodd" stroke="none" />
      <path d="M47.705 37.155L133.565 37.155L133.565 34.655L47.705 34.655L47.705 37.155Z" id="Fill-54" fill="#FFFFFF" fill-rule="evenodd" stroke="none" />
      <path d="M133.566 140.193L43.5705 140.193C39.4705 140.193 36.1505 143.518 36.1505 147.613L36.1505 189.508C36.1505 193.608 39.4705 196.933 43.5705 196.933L50.7355 196.933L58.8155 207.728C60.6105 210.128 64.3805 209.413 65.1705 206.523L67.7905 196.933L133.566 196.933C137.665 196.933 140.986 193.608 140.986 189.508L140.986 147.613C140.986 143.518 137.665 140.193 133.566 140.193" id="Fill-55" fill="#FF4E4A" fill-rule="evenodd" stroke="none" />
      <path d="M47.705 153.685L95.59 153.685L95.59 151.185L47.705 151.185L47.705 153.685Z" id="Fill-56" fill="#FFFFFF" fill-rule="evenodd" stroke="none" />
      <path d="M105.5 153.685L122.01 153.685L122.01 151.185L105.5 151.185L105.5 153.685Z" id="Fill-57" fill="#FFFFFF" fill-rule="evenodd" stroke="none" />
      <path d="M47.705 165.515L81.72 165.515L81.72 163.015L47.705 163.015L47.705 165.515Z" id="Fill-58" fill="#FFFFFF" fill-rule="evenodd" stroke="none" />
      <path d="M47.705 177.345L113.42 177.345L113.42 174.845L47.705 174.845L47.705 177.345Z" id="Fill-59" fill="#FFFFFF" fill-rule="evenodd" stroke="none" />
      <path d="M103.428 70.058L212.999 70.058C217.094 70.058 220.413 73.383 220.413 77.478L220.413 119.378C220.413 123.473 217.094 126.798 212.999 126.798L205.828 126.798L197.749 137.598C195.953 139.993 192.184 139.278 191.398 136.388L188.773 126.798L103.428 126.798C99.3285 126.798 96.0085 123.473 96.0085 119.378L96.0085 77.478C96.0085 73.383 99.3285 70.058 103.428 70.058" id="Fill-60" fill="#FFC84D" fill-rule="evenodd" stroke="none" />
      <path d="M164.94 83.55L208.86 83.55L208.86 81.05L164.94 81.05L164.94 83.55Z" id="Fill-61" fill="#FFFFFF" fill-rule="evenodd" stroke="none" />
      <path d="M113.425 95.385L208.86 95.385L208.86 92.885L113.425 92.885L113.425 95.385Z" id="Fill-62" fill="#FFFFFF" fill-rule="evenodd" stroke="none" />
      <path d="M161.97 107.215L208.86 107.215L208.86 104.715L161.97 104.715L161.97 107.215Z" id="Fill-63" fill="#FFFFFF" fill-rule="evenodd" stroke="none" />
      <path d="M132.575 107.215L154.04 107.215L154.04 104.715L132.575 104.715L132.575 107.215Z" id="Fill-64" fill="#FFFFFF" fill-rule="evenodd" stroke="none" />
      <path d="M293.438 276.82C274.323 276.82 258.768 292.375 258.768 311.49C258.768 330.611 274.323 346.165 293.438 346.165C312.559 346.165 328.113 330.611 328.113 311.49C328.113 292.375 312.559 276.82 293.438 276.82M293.439 348.665C272.943 348.665 256.268 331.991 256.268 311.491C256.268 290.995 272.943 274.32 293.439 274.32C313.939 274.32 330.613 290.995 330.613 311.491C330.613 331.991 313.939 348.665 293.439 348.665" id="Fill-65" fill="#FFFFFF" fill-rule="evenodd" stroke="none" />
    </g>
  </g>
</svg>